<?xml version="1.0" encoding="UTF-8" standalone="no"?>
<!DOCTYPE svg PUBLIC "-//W3C//DTD SVG 1.1//EN" "http://www.w3.org/Graphics/SVG/1.1/DTD/svg11.dtd">
<svg xmlns:dc="http://purl.org/dc/elements/1.1/" xmlns="http://www.w3.org/2000/svg" version="1.1" xmlns:xl="http://www.w3.org/1999/xlink" viewBox="250 213 719 428" width="719" height="428">
  <defs>
    <marker orient="auto" overflow="visible" markerUnits="strokeWidth" id="FilledArrow_Marker" stroke-linejoin="miter" stroke-miterlimit="10" viewBox="-1 -3 6 6" markerWidth="6" markerHeight="6" color="black">
      <g>
        <path d="M 3.2 0 L 0 -1.2 L 0 1.2 Z" fill="currentColor" stroke="currentColor" stroke-width="1"/>
      </g>
    </marker>
    <marker orient="auto" overflow="visible" markerUnits="strokeWidth" id="FilledArrow_Marker_2" stroke-linejoin="miter" stroke-miterlimit="10" viewBox="-5 -3 6 6" markerWidth="6" markerHeight="6" color="black">
      <g>
        <path d="M -3.2 0 L 0 1.2 L 0 -1.2 Z" fill="currentColor" stroke="currentColor" stroke-width="1"/>
      </g>
    </marker>
  </defs>
  <g id="Canvas_1" stroke-dasharray="none" fill-opacity="1" stroke="none" stroke-opacity="1" fill="none">
    <title>Canvas 1</title>
    <g id="Canvas_1_Model1">
      <title>Model1</title>
      <g id="Graphic_35">
        <ellipse cx="331.25" cy="336.5" rx="80.2501282316272" ry="76.0001214405441" stroke="black" stroke-linecap="round" stroke-linejoin="round" stroke-width="2"/>
        <text transform="translate(272.05 307.828)" fill="black">
          <tspan font-family="Helvetica Neue" font-size="24" fill="black" x="18.532" y="23">Healthy</tspan>
          <tspan font-family="Helvetica Neue" font-size="24" fill="black" x="44.32" y="51.672">[H]</tspan>
        </text>
      </g>
      <g id="Graphic_34">
        <ellipse cx="609.75" cy="336.5" rx="80.2501282316272" ry="76.0001214405441" stroke="black" stroke-linecap="round" stroke-linejoin="round" stroke-width="2"/>
        <text transform="translate(550.55 307.828)" fill="black">
          <tspan font-family="Helvetica Neue" font-size="24" fill="black" x="36.088" y="23">Sick</tspan>
          <tspan font-family="Helvetica Neue" font-size="24" fill="black" x="38.536" y="51.672">[S1]</tspan>
        </text>
      </g>
      <g id="Graphic_33">
        <ellipse cx="887.75" cy="336.5" rx="80.2501282316271" ry="76.0001214405441" stroke="black" stroke-linecap="round" stroke-linejoin="round" stroke-width="2"/>
        <text transform="translate(828.55 307.828)" fill="black">
          <tspan font-family="Helvetica Neue" font-size="24" fill="black" x="25.648" y="23">Sicker</tspan>
          <tspan font-family="Helvetica Neue" font-size="24" fill="black" x="38.536" y="51.672">[S2]</tspan>
        </text>
      </g>
      <g id="Graphic_31">
        <ellipse cx="445.25" cy="563.5" rx="80.2501282316272" ry="76.0001214405442" stroke="black" stroke-linecap="round" stroke-linejoin="round" stroke-width="2"/>
        <text transform="translate(386.05 534.828)" fill="black">
          <tspan font-family="Helvetica Neue" font-size="24" fill="black" x="27.412" y="23">Death</tspan>
          <tspan font-family="Helvetica Neue" font-size="24" fill="black" x="44.536" y="51.672">[D]</tspan>
        </text>
      </g>
      <g id="Line_24">
        <path d="M 392.3977 285.79123 C 415.6728 271.8574 443.99915 260.5 474.5 260.5 C 496.29094 260.5 516.36176 266.29704 534.00046 274.68904" marker-end="url(#FilledArrow_Marker)" stroke="black" stroke-linecap="round" stroke-linejoin="round" stroke-width="4"/>
      </g>
      <g id="Line_23">
        <path d="M 416.23384 386.40124 C 433.41416 392.14667 452.42115 396 472.5 396 C 498.78684 396 522.79256 389.3956 543.1193 380.58745" marker-start="url(#FilledArrow_Marker_2)" stroke="black" stroke-linecap="round" stroke-linejoin="round" stroke-width="4"/>
      </g>
      <g id="Line_22">
        <path d="M 669.56655 284.38718 C 691.42415 271.10243 718.0832 260.5 747.5 260.5 C 770.3839 260.5 791.81 266.91615 810.6935 276.01995" marker-end="url(#FilledArrow_Marker)" stroke="black" stroke-linecap="round" stroke-linejoin="round" stroke-width="4"/>
      </g>
      <g id="Line_36">
        <path d="M 321.0217 412.89113 C 322.23332 431.7255 326.55094 452.18916 336.5 472 C 343.61024 486.1581 352.86062 498.51707 362.9642 509.18287" marker-end="url(#FilledArrow_Marker)" stroke="black" stroke-linecap="round" stroke-linejoin="round" stroke-width="4"/>
      </g>
      <g id="Line_37">
        <path d="M 610.26345 413.4985 C 606.12 432.85666 598.0922 453.8636 583.5 474 C 569.93396 492.7203 552.5512 508.1257 534.7233 520.55986" marker-end="url(#FilledArrow_Marker)" stroke="black" stroke-linecap="round" stroke-linejoin="round" stroke-width="4"/>
      </g>
      <g id="Line_38">
        <path d="M 842.106 400.21873 C 815.0339 430.1914 774.6207 465.6974 717.5 495 C 658.827 525.0989 595.43904 542.0285 544.60177 551.5228" marker-end="url(#FilledArrow_Marker)" stroke="black" stroke-linecap="round" stroke-linejoin="round" stroke-width="4"/>
      </g>
      <g id="Graphic_39">
        <text transform="translate(429.5 218)" fill="black">
          <tspan font-family="Helvetica" font-size="24" fill="black" x="0" y="23">r_HS1</tspan>
        </text>
      </g>
      <g id="Graphic_40">
        <text transform="translate(707.5 218)" fill="black">
          <tspan font-family="Helvetica" font-size="24" fill="black" x="0" y="23">r_S1S2</tspan>
        </text>
      </g>
      <g id="Graphic_41">
        <text transform="translate(436.48633 403.5)" fill="black">
          <tspan font-family="Helvetica" font-size="24" fill="black" x="0" y="23">r_S1H</tspan>
        </text>
      </g>
      <g id="Graphic_42">
        <text transform="translate(256 447)" fill="black">
          <tspan font-family="Helvetica" font-size="24" fill="black" x="0" y="23">r_HD</tspan>
        </text>
      </g>
      <g id="Graphic_43">
        <text transform="translate(610.5 425.5)" fill="black">
          <tspan font-family="Helvetica" font-size="24" fill="black" x="0" y="23">hr_S1 * r_HD</tspan>
        </text>
      </g>
      <g id="Graphic_44">
        <text transform="translate(736 492.5)" fill="black">
          <tspan font-family="Helvetica" font-size="24" fill="black" x="0" y="23">hr_S2 * r_HD</tspan>
        </text>
      </g>
    </g>
  </g>
</svg>
