<?xml version="1.0" encoding="UTF-8"?>
<svg xmlns="http://www.w3.org/2000/svg" xmlns:xlink="http://www.w3.org/1999/xlink" width="504" height="604" viewBox="0 0 504 604">
<rect x="-50.4" y="-60.4" width="604.8" height="724.8" fill="rgb(100%, 100%, 100%)" fill-opacity="1"/>
<path fill="none" stroke-width="1.066978" stroke-linecap="butt" stroke-linejoin="round" stroke="rgb(0%, 0%, 0%)" stroke-opacity="1" stroke-miterlimit="10" d="M 0 576.546875 L 22.910156 576.546875 L 22.910156 542.226562 L 79.449219 542.226562 L 79.449219 525.066406 L 98.949219 525.066406 L 98.949219 507.910156 L 106.746094 507.910156 L 106.746094 490.75 L 112.597656 490.75 L 112.597656 473.589844 L 116.496094 473.589844 L 116.496094 439.273438 L 122.34375 439.273438 L 122.34375 422.113281 L 128.195312 422.113281 L 128.195312 404.953125 L 139.890625 404.953125 L 139.890625 387.796875 L 157.4375 387.796875 L 157.4375 370.636719 L 167.1875 370.636719 L 167.1875 353.476562 L 173.035156 353.476562 L 173.035156 336.316406 L 184.734375 336.316406 L 184.734375 319.160156 L 194.484375 319.160156 L 194.484375 284.839844 L 204.230469 284.839844 L 204.230469 267.683594 L 229.578125 267.683594 L 229.578125 233.363281 L 237.378906 233.363281 L 237.378906 199.046875 L 239.328125 199.046875 L 239.328125 181.886719 L 264.671875 181.886719 L 264.671875 147.566406 L 295.867188 147.566406 L 295.867188 130.410156 L 327.0625 130.410156 L 327.0625 113.25 L 352.410156 113.25 L 352.410156 96.089844 L 412.851562 96.089844 L 412.851562 61.773438 L 451.84375 61.773438 L 451.84375 44.613281 L 481.089844 44.613281 L 481.089844 27.453125 L 504 27.453125 "/>
</svg>
